<svg width="251" height="80" viewBox="0 0 251 80" fill="none" xmlns="http://www.w3.org/2000/svg">
<g clip-path="url(#clip0_161_8044)">
<path d="M52.8663 40.9497C52.8466 41.1121 52.8235 41.2778 52.7972 41.4408C48.482 39.2514 45.1064 35.5463 43.3043 31.0211C43.2955 31.0012 43.29 30.9835 43.2812 30.9657C45.4997 30.7828 47.693 31.0211 49.7276 31.6895C49.7292 31.6894 49.7307 31.6896 49.7322 31.6902C49.7336 31.6907 49.7349 31.6917 49.7359 31.6929C50.4432 31.9255 51.132 32.2122 51.7963 32.5503C51.8134 32.5567 51.8299 32.5644 51.8457 32.5736C52.9239 35.1624 53.2548 38.0516 52.8663 40.9497Z" fill="#1B183E"/>
<path d="M35.1046 58.2121C32.6903 58.456 30.3044 58.1971 28.1112 57.4328C27.4702 57.2103 26.8451 56.9433 26.2406 56.6336C26.1199 56.3432 26.0079 56.0467 25.9042 55.7468C25.0405 53.2267 24.848 50.4683 25.2968 47.7188C25.3456 47.742 25.3978 47.7681 25.4466 47.7941C29.7714 49.923 33.1809 53.5693 35.0383 58.0519C35.0613 58.1046 35.0816 58.1594 35.1046 58.2121Z" fill="#1B183E"/>
<path d="M46.1727 38.1373C44.307 36.1168 42.8456 33.7509 41.8691 31.17C41.8691 31.1611 41.8603 31.1495 41.8576 31.1406C41.4027 31.2166 40.9483 31.3069 40.4962 31.4177C40.4924 31.4165 40.4884 31.4165 40.4847 31.4177C37.2845 32.1937 34.1453 33.8564 31.4604 36.3793C29.7517 37.9775 28.3223 39.8556 27.2325 41.9344C26.5082 43.3226 25.9527 44.7943 25.5781 46.3173C25.6182 46.335 25.6555 46.3555 25.6961 46.3727C30.6011 48.6912 34.4483 52.8089 36.456 57.8891C36.4763 57.9329 36.4933 57.9789 36.5108 58.0227C37.9923 57.7535 39.4372 57.3087 40.8156 56.6975C42.9518 55.7472 44.9143 54.4402 46.6205 52.8312C49.6533 49.9796 51.6363 46.4658 52.511 42.8583C50.1239 41.6998 47.9738 40.0983 46.1727 38.1373ZM46.1897 45.2936C46.1237 45.3559 46.0461 45.4044 45.9614 45.4364C45.8768 45.4684 45.7867 45.4832 45.6964 45.4799C45.6061 45.4767 45.5173 45.4555 45.4351 45.4175C45.3529 45.3795 45.2789 45.3256 45.2174 45.2587L42.6126 42.4321L40.1264 44.7693L42.7306 47.5959C42.851 47.7314 42.9139 47.9093 42.9059 48.0912C42.8978 48.2731 42.8193 48.4445 42.6874 48.5686C42.5555 48.6928 42.3806 48.7596 42.2004 48.7548C42.0201 48.75 41.849 48.674 41.7237 48.5431L39.1189 45.7165L36.6327 48.0537L39.2369 50.8803C39.2985 50.947 39.3465 51.0254 39.3781 51.1109C39.4097 51.1965 39.4243 51.2874 39.4212 51.3786C39.418 51.4699 39.397 51.5596 39.3595 51.6426C39.322 51.7256 39.2687 51.8004 39.2026 51.8627C39.1365 51.9249 39.0589 51.9734 38.9742 52.0053C38.8896 52.0372 38.7995 52.052 38.7092 52.0488C38.6189 52.0456 38.5301 52.0244 38.4478 51.9865C38.3656 51.9487 38.2916 51.8948 38.23 51.828L35.6257 49.0014L34.7248 49.8472C34.5912 49.9729 34.4136 50.0398 34.2311 50.0332C34.0487 50.0267 33.8763 49.9472 33.7519 49.8123C33.6274 49.6773 33.5612 49.498 33.5677 49.3137C33.5741 49.1294 33.6528 48.9553 33.7864 48.8296L34.6874 47.9838L32.0832 45.1572C32.0171 45.0914 31.9649 45.0127 31.9297 44.9259C31.8946 44.8392 31.8772 44.7461 31.8786 44.6523C31.8801 44.5586 31.9003 44.4661 31.9382 44.3805C31.976 44.2948 32.0306 44.2178 32.0987 44.1541C32.1668 44.0904 32.247 44.0413 32.3344 44.0097C32.4218 43.9782 32.5146 43.9648 32.6073 43.9705C32.6999 43.9762 32.7905 44.0008 32.8735 44.0428C32.9565 44.0849 33.0302 44.1434 33.0901 44.215L35.6943 47.0416L38.1811 44.7044L35.5764 41.8778C35.452 41.7429 35.3858 41.5636 35.3924 41.3793C35.3989 41.1951 35.4776 41.0211 35.6112 40.8954C35.7448 40.7698 35.9223 40.703 36.1047 40.7096C36.2871 40.7162 36.4595 40.7957 36.5838 40.9306L39.188 43.7572L41.6748 41.4206L39.0701 38.594C39.0085 38.5272 38.9605 38.4487 38.9289 38.3632C38.8973 38.2777 38.8827 38.1867 38.8859 38.0954C38.8891 38.0042 38.91 37.9145 38.9476 37.8314C38.9851 37.7483 39.0385 37.6736 39.1046 37.6113C39.1708 37.5491 39.2484 37.5006 39.3331 37.4687C39.4178 37.4368 39.5079 37.422 39.5982 37.4253C39.6886 37.4285 39.7774 37.4497 39.8596 37.4876C39.9419 37.5255 40.0159 37.5794 40.0775 37.6462L42.6818 40.4728L43.5827 39.6243C43.6485 39.5601 43.7262 39.5098 43.8115 39.4763C43.8967 39.4428 43.9876 39.4268 44.079 39.4293C44.1704 39.4317 44.2605 39.4525 44.3438 39.4905C44.4272 39.5284 44.5022 39.5828 44.5645 39.6504C44.6268 39.7179 44.6752 39.7974 44.7067 39.8841C44.7383 39.9707 44.7525 40.0629 44.7484 40.1552C44.7443 40.2474 44.722 40.3379 44.6829 40.4214C44.6438 40.5049 44.5886 40.5796 44.5205 40.6413L43.6201 41.4904L46.2243 44.317C46.3471 44.4516 46.4123 44.6296 46.4058 44.8125C46.3994 44.9953 46.3217 45.1682 46.1897 45.2936Z" fill="#1B183E"/>
<path d="M24.6299 59.1653C23.6513 58.2554 22.7671 57.247 21.9911 56.1558L0 79.999L25.3992 59.8409C25.1375 59.6231 24.8817 59.3987 24.6299 59.1653Z" fill="#614BFF"/>
<path d="M38.5433 64.2919C37.0483 64.357 35.551 64.2486 34.0805 63.9688L22.4531 77.9798L38.5482 64.2902L38.5433 64.2919Z" fill="#614BFF"/>
<path d="M18.7417 48.5938L3.32812 68.38L20.0575 52.7655C19.4639 51.4297 19.0224 50.0302 18.7417 48.5938Z" fill="#614BFF"/>
<path d="M72.1626 34.7345C78.4805 31.8054 80.1377 26.0513 80.1377 20.5067C80.1377 6.48843 68.3303 0 53.8298 0H16.75V48.3914L19.6857 44.6226L20.3908 48.2562C20.6474 49.5665 21.0501 50.8433 21.5914 52.0621L21.8312 52.603C22.0003 52.985 22.1984 53.3532 22.4238 53.7043L23.3599 55.163C23.6771 55.6064 24.012 56.0341 24.3646 56.4461C24.3487 56.4018 24.3317 56.358 24.3158 56.3131C23.3731 53.5613 23.1393 50.4975 23.637 47.4453L23.6562 47.3278L23.7083 47.008C23.7449 46.7941 23.7888 46.582 23.84 46.3718L24.1144 45.2838C24.5148 43.8484 25.0632 42.4595 25.7507 41.1398C26.928 38.8916 28.4732 36.8607 30.321 35.133C32.9998 32.6129 36.2049 30.8055 39.6169 29.8866L40.3077 29.7142C40.8602 29.5879 41.4221 29.508 41.9829 29.4288C42.5316 29.3506 43.0804 29.2714 43.6357 29.2304C43.9967 29.2038 44.3611 29.2004 44.7233 29.2004C46.508 29.1948 48.2835 29.4587 49.991 29.9836L50.6352 30.1986C51.2743 30.4269 51.899 30.6946 52.5057 31.0001C52.5502 31.02 52.587 31.0388 52.6155 31.0555L52.6265 31.061C52.9782 31.2385 53.2531 31.5403 53.3991 31.909C54.5755 34.7356 54.9695 37.9369 54.5382 41.1647C54.5157 41.3443 54.4905 41.5272 54.4619 41.7068L54.4312 41.8991L54.4746 41.9201L54.3379 42.4849L54.2227 43.2054H54.243C59.3181 43.2054 61.9075 46.2393 61.9075 50.2148C61.9075 54.2951 59.4218 57.1195 54.243 57.1195H43.6955C42.9843 57.5376 42.2504 57.9151 41.4973 58.2501C40.2205 58.8151 38.8909 59.2498 37.5284 59.5476L37.5833 59.6762L36.0469 59.8297L35.4625 59.9356L35.4449 59.8901L35.271 59.9079C34.6334 59.9721 33.9881 60.0048 33.3548 60.0048C31.3843 60.0123 29.4263 59.6877 27.5615 59.0444C27.2646 58.9407 26.9732 58.8277 26.6862 58.7118L27.3447 59.2661L28.0833 59.7372L28.1014 59.7499C29.2679 60.5171 30.5204 61.1416 31.8327 61.6105L33.3856 62.1647L33.4201 62.1226L34.3886 62.3077C35.4781 62.5152 36.5844 62.6194 37.693 62.6192C37.9493 62.6192 38.2099 62.6136 38.4667 62.6025L43.3953 62.3903L39.6267 65.5993L30.6469 73.2361H54.1365C67.3942 73.1314 82.2053 68.2142 82.2053 51.7872C82.208 45.1962 78.8948 38.3963 72.1626 34.7345ZM53.3118 27.9346H36.9468V16.739H53.5181C57.5578 16.739 59.8367 19.2497 59.8367 22.4925C59.8367 25.7354 57.5584 27.9346 53.3118 27.9346Z" fill="#614BFF"/>
<path d="M27.1586 61.1478L27.1487 61.1406L13.0625 77.934L31.2713 63.204C29.8239 62.6872 28.4432 61.9969 27.1586 61.1478Z" fill="#614BFF"/>
</g>
<path d="M109.109 52.7523V17.7656H122.356C125.613 17.7656 128.025 18.5399 129.59 20.0886C131.156 21.6372 131.939 23.897 131.939 26.8678C131.939 28.2585 131.72 29.4911 131.282 30.5656C130.874 31.6086 130.311 32.4777 129.59 33.173C128.87 33.8367 128.025 34.295 127.054 34.5478C127.774 34.7375 128.479 35.0377 129.168 35.4486C129.888 35.8278 130.546 36.3651 131.141 37.0604C131.736 37.7558 132.205 38.6091 132.55 39.6204C132.894 40.6002 133.067 41.7538 133.067 43.0812C133.067 45.4832 132.659 47.3953 131.845 48.8175C131.062 50.2081 129.904 51.2195 128.369 51.8516C126.866 52.452 125.05 52.7523 122.92 52.7523H109.109ZM114.887 47.4901H122.732C123.703 47.4901 124.548 47.3162 125.269 46.9686C125.989 46.6209 126.537 46.0679 126.913 45.3093C127.32 44.5192 127.524 43.4446 127.524 42.0856C127.524 41.0111 127.32 40.1103 126.913 39.3834C126.506 38.6565 125.942 38.1034 125.222 37.7241C124.501 37.3133 123.672 37.1078 122.732 37.1078H114.887V47.4901ZM114.887 32.5567H122.45C123.609 32.5567 124.548 32.1301 125.269 31.2767C125.989 30.3918 126.365 29.2382 126.396 27.816C126.427 26.0145 126.036 24.7661 125.222 24.0708C124.439 23.3755 123.468 23.0278 122.309 23.0278H114.887V32.5567Z" fill="#1A1A1A"/>
<path d="M148.199 52.9893C145.475 52.9893 143.298 52.6101 141.67 51.8516C140.072 51.093 138.914 49.7814 138.193 47.9167C137.473 46.0204 137.113 43.3972 137.113 40.0471C137.113 36.6338 137.458 33.9948 138.146 32.1301C138.835 30.2338 139.978 28.9064 141.576 28.1478C143.173 27.3893 145.334 27.0101 148.058 27.0101C150.47 27.0101 152.396 27.2629 153.836 27.7686C155.308 28.2427 156.373 29.1118 157.03 30.376C157.719 31.6086 158.064 33.3627 158.064 35.6382C158.064 37.2501 157.751 38.5459 157.124 39.5256C156.498 40.4738 155.59 41.1533 154.4 41.5641C153.241 41.975 151.863 42.1804 150.266 42.1804H142.891C142.954 43.7607 143.157 45.0249 143.502 45.973C143.877 46.8896 144.535 47.5533 145.475 47.9641C146.445 48.375 147.855 48.5804 149.702 48.5804H157.312V52.0412C156.028 52.294 154.666 52.5153 153.225 52.7049C151.816 52.8945 150.141 52.9893 148.199 52.9893ZM142.844 38.6249H149.702C150.798 38.6249 151.597 38.4195 152.098 38.0086C152.63 37.5661 152.897 36.776 152.897 35.6382C152.897 34.532 152.74 33.6629 152.427 33.0308C152.114 32.3987 151.597 31.9562 150.877 31.7034C150.156 31.419 149.217 31.2767 148.058 31.2767C146.743 31.2767 145.709 31.4822 144.958 31.893C144.206 32.3039 143.658 33.0466 143.314 34.1212C143.001 35.1641 142.844 36.6654 142.844 38.6249Z" fill="#1A1A1A"/>
<path d="M172.394 52.7523C170.578 52.7523 169.09 52.4837 167.931 51.9464C166.773 51.3775 165.927 50.4451 165.395 49.1493C164.894 47.8535 164.659 46.1469 164.69 44.0293L164.878 32.0827H160.932V28.2901L165.066 27.3419L165.912 20.2308H170.468V27.3419H176.857V32.0827H170.468V43.9819C170.468 44.8037 170.546 45.4832 170.703 46.0204C170.86 46.5261 171.079 46.937 171.361 47.253C171.674 47.5375 172.003 47.7429 172.347 47.8693C172.692 47.9958 173.052 48.0748 173.428 48.1064L176.575 48.4382V52.7523H172.394Z" fill="#1A1A1A"/>
<path d="M181.125 63.9879V27.3419H185.963L186.95 29.8545C187.545 29.3804 188.234 28.9222 189.017 28.4797C189.8 28.0372 190.645 27.6896 191.553 27.4367C192.461 27.1523 193.401 27.0101 194.372 27.0101C195.969 27.0101 197.331 27.3261 198.459 27.9582C199.617 28.5903 200.557 29.4911 201.277 30.6604C201.997 31.7982 202.514 33.173 202.827 34.7849C203.172 36.3651 203.344 38.1192 203.344 40.0471C203.344 42.8283 203.046 45.1987 202.451 47.1582C201.888 49.0861 200.948 50.5558 199.633 51.5671C198.349 52.5785 196.595 53.0841 194.372 53.0841C193.119 53.0841 191.835 52.9103 190.52 52.5627C189.236 52.215 188.046 51.7567 186.95 51.1879V63.9879H181.125ZM192.54 48.2486C193.448 48.2486 194.278 48.0116 195.029 47.5375C195.781 47.0318 196.376 46.1943 196.814 45.0249C197.284 43.8555 197.519 42.1962 197.519 40.0471C197.519 37.9928 197.3 36.3493 196.861 35.1167C196.423 33.8841 195.828 33.015 195.076 32.5093C194.356 32.0037 193.526 31.7508 192.587 31.7508C191.428 31.7508 190.379 31.9404 189.439 32.3197C188.5 32.6674 187.67 33.0308 186.95 33.4101V46.6841C187.764 47.1582 188.656 47.5375 189.627 47.8219C190.598 48.1064 191.569 48.2486 192.54 48.2486Z" fill="#1A1A1A"/>
<path d="M208.512 52.7523V27.3419H213.021L214.336 31.419C215.339 30.1864 216.45 29.1434 217.672 28.2901C218.893 27.4367 220.349 27.0101 222.04 27.0101C222.385 27.0101 222.745 27.0417 223.121 27.1049C223.497 27.1365 223.841 27.1997 224.154 27.2945V33.2678C223.716 33.2046 223.246 33.1572 222.745 33.1256C222.244 33.094 221.758 33.0782 221.289 33.0782C220.318 33.0782 219.425 33.1888 218.611 33.4101C217.828 33.6313 217.092 33.979 216.403 34.453C215.714 34.8955 215.025 35.4644 214.336 36.1597V52.7523H208.512Z" fill="#1A1A1A"/>
<path d="M238.714 52.9893C236.741 52.9893 235.034 52.7839 233.594 52.373C232.153 51.9622 230.979 51.2669 230.07 50.2871C229.162 49.3074 228.489 47.9799 228.051 46.3049C227.612 44.6298 227.393 42.5281 227.393 39.9997C227.393 37.3765 227.612 35.2274 228.051 33.5523C228.489 31.8456 229.162 30.5182 230.07 29.5701C231.01 28.5903 232.2 27.9266 233.641 27.579C235.081 27.1997 236.772 27.0101 238.714 27.0101C240.718 27.0101 242.441 27.2155 243.881 27.6264C245.322 28.0056 246.496 28.6693 247.404 29.6175C248.312 30.5656 248.986 31.893 249.424 33.5997C249.863 35.2748 250.082 37.4081 250.082 39.9997C250.082 42.5597 249.863 44.693 249.424 46.3997C249.017 48.0748 248.359 49.4022 247.451 50.3819C246.543 51.3301 245.369 52.0096 243.928 52.4204C242.487 52.7997 240.749 52.9893 238.714 52.9893ZM238.714 48.296C239.685 48.296 240.515 48.217 241.204 48.059C241.892 47.8693 242.456 47.5059 242.895 46.9686C243.364 46.3997 243.709 45.5622 243.928 44.456C244.147 43.3182 244.257 41.817 244.257 39.9523C244.257 38.1192 244.147 36.6496 243.928 35.5434C243.709 34.4372 243.364 33.6155 242.895 33.0782C242.456 32.5093 241.892 32.1459 241.204 31.9878C240.515 31.7982 239.685 31.7034 238.714 31.7034C237.774 31.7034 236.96 31.7982 236.271 31.9878C235.582 32.1459 235.018 32.5093 234.58 33.0782C234.142 33.6155 233.797 34.4372 233.547 35.5434C233.327 36.6496 233.218 38.1192 233.218 39.9523C233.218 41.817 233.327 43.3182 233.547 44.456C233.797 45.5622 234.142 46.3997 234.58 46.9686C235.018 47.5059 235.582 47.8693 236.271 48.059C236.96 48.217 237.774 48.296 238.714 48.296Z" fill="#1A1A1A"/>
<defs>
<clipPath id="clip0_161_8044">
<rect width="82.2061" height="80" fill="white"/>
</clipPath>
</defs>
</svg>
