<svg width="151" height="48" viewBox="0 0 151 48" fill="none" xmlns="http://www.w3.org/2000/svg">
<g clip-path="url(#clip0_38_5418)">
<path d="M31.7198 24.5698C31.7079 24.6673 31.6941 24.7667 31.6783 24.8645C29.0892 23.5509 27.0639 21.3278 25.9826 18.6127C25.9773 18.6007 25.974 18.5901 25.9688 18.5794C27.2998 18.4697 28.6158 18.6127 29.8366 19.0137C29.8375 19.0136 29.8384 19.0138 29.8393 19.0141C29.8402 19.0145 29.8409 19.015 29.8415 19.0157C30.2659 19.1553 30.6792 19.3273 31.0778 19.5302C31.088 19.534 31.0979 19.5387 31.1074 19.5441C31.7544 21.0974 31.9529 22.831 31.7198 24.5698Z" fill="white"/>
<path d="M21.0629 34.9272C19.6143 35.0735 18.1828 34.9183 16.8668 34.4597C16.4822 34.3262 16.1072 34.1659 15.7445 33.9802C15.672 33.8059 15.6049 33.628 15.5426 33.4481C15.0244 31.936 14.9089 30.281 15.1782 28.6312C15.2075 28.6452 15.2388 28.6608 15.2681 28.6765C17.8629 29.9537 19.9086 32.1415 21.0231 34.8311C21.0369 34.8627 21.0491 34.8956 21.0629 34.9272Z" fill="white"/>
<path d="M27.7037 22.8824C26.5842 21.6701 25.7074 20.2506 25.1215 18.702C25.1215 18.6967 25.1162 18.6897 25.1146 18.6844C24.8417 18.7299 24.5691 18.7841 24.2978 18.8507C24.2955 18.8499 24.2931 18.8499 24.2909 18.8507C22.3708 19.3162 20.4872 20.3138 18.8763 21.8276C17.851 22.7865 16.9934 23.9133 16.3396 25.1606C15.9049 25.9936 15.5717 26.8766 15.3469 27.7904C15.371 27.801 15.3933 27.8133 15.4177 27.8236C18.3607 29.2147 20.669 31.6854 21.8736 34.7335C21.8858 34.7598 21.896 34.7874 21.9066 34.8136C22.7955 34.6521 23.6624 34.3852 24.4894 34.0185C25.7711 33.4484 26.9486 32.6641 27.9723 31.6987C29.792 29.9878 30.9818 27.8795 31.5066 25.715C30.0744 25.0199 28.7843 24.059 27.7037 22.8824ZM27.7139 27.1762C27.6743 27.2135 27.6277 27.2427 27.5769 27.2619C27.5261 27.281 27.4721 27.2899 27.4179 27.288C27.3637 27.286 27.3104 27.2733 27.2611 27.2505C27.2118 27.2277 27.1674 27.1953 27.1305 27.1552L25.5676 25.4592L24.0759 26.8616L25.6384 28.5575C25.7106 28.6389 25.7484 28.7456 25.7436 28.8547C25.7387 28.9639 25.6917 29.0667 25.6125 29.1412C25.5333 29.2157 25.4284 29.2558 25.3203 29.2529C25.2121 29.25 25.1094 29.2044 25.0343 29.1259L23.4714 27.4299L21.9796 28.8322L23.5422 30.5282C23.5791 30.5682 23.6079 30.6153 23.6269 30.6666C23.6459 30.7179 23.6547 30.7725 23.6527 30.8272C23.6508 30.8819 23.6383 30.9357 23.6158 30.9856C23.5933 31.0354 23.5613 31.0803 23.5216 31.1176C23.4819 31.1549 23.4354 31.184 23.3846 31.2032C23.3338 31.2223 23.2797 31.2312 23.2256 31.2293C23.1714 31.2274 23.1181 31.2147 23.0688 31.1919C23.0194 31.1692 22.975 31.1369 22.938 31.0968L21.3755 29.4009L20.8349 29.9083C20.7547 29.9837 20.6482 30.0239 20.5387 30.02C20.4293 30.016 20.3258 29.9683 20.2512 29.8874C20.1765 29.8064 20.1368 29.6988 20.1406 29.5882C20.1445 29.4777 20.1918 29.3732 20.2719 29.2978L20.8125 28.7903L19.25 27.0944C19.2103 27.0549 19.179 27.0076 19.1579 26.9556C19.1368 26.9035 19.1264 26.8477 19.1272 26.7914C19.1281 26.7352 19.1403 26.6797 19.1629 26.6283C19.1856 26.5769 19.2184 26.5307 19.2593 26.4925C19.3001 26.4542 19.3482 26.4248 19.4007 26.4058C19.4531 26.3869 19.5088 26.3789 19.5644 26.3823C19.62 26.3857 19.6744 26.4005 19.7241 26.4257C19.7739 26.4509 19.8181 26.4861 19.8541 26.529L21.4167 28.225L22.9087 26.8227L21.3459 25.1267C21.2713 25.0457 21.2315 24.9382 21.2355 24.8276C21.2394 24.7171 21.2866 24.6126 21.3668 24.5373C21.4469 24.4619 21.5534 24.4218 21.6629 24.4258C21.7723 24.4297 21.8757 24.4774 21.9503 24.5584L23.5129 26.2544L25.005 24.8524L23.4421 23.1564C23.4051 23.1163 23.3763 23.0693 23.3574 23.0179C23.3384 22.9666 23.3296 22.912 23.3316 22.8573C23.3335 22.8025 23.3461 22.7487 23.3686 22.6988C23.3911 22.649 23.4231 22.6041 23.4628 22.5668C23.5025 22.5295 23.5491 22.5004 23.5999 22.4812C23.6507 22.4621 23.7048 22.4532 23.759 22.4552C23.8132 22.4571 23.8665 22.4698 23.9158 22.4926C23.9652 22.5153 24.0096 22.5477 24.0466 22.5878L25.6091 24.2837L26.1497 23.7746C26.1891 23.7361 26.2358 23.7059 26.2869 23.6858C26.338 23.6657 26.3926 23.6561 26.4475 23.6576C26.5023 23.659 26.5563 23.6715 26.6063 23.6943C26.6563 23.7171 26.7014 23.7497 26.7387 23.7902C26.7761 23.8308 26.8052 23.8785 26.8241 23.9305C26.843 23.9825 26.8515 24.0378 26.8491 24.0931C26.8466 24.1485 26.8333 24.2028 26.8098 24.2529C26.7863 24.3029 26.7532 24.3478 26.7124 24.3848L26.1721 24.8943L27.7346 26.5902C27.8083 26.671 27.8474 26.7778 27.8435 26.8875C27.8397 26.9972 27.7931 27.101 27.7139 27.1762Z" fill="white"/>
<path d="M14.7779 35.4992C14.1908 34.9532 13.6603 34.3482 13.1947 33.6935L0 47.9994L15.2395 35.9045C15.0825 35.7739 14.929 35.6392 14.7779 35.4992Z" fill="#614BFF"/>
<path d="M23.126 38.5751C22.2291 38.6142 21.3306 38.5491 20.4484 38.3812L13.4719 46.7879L23.129 38.5741L23.126 38.5751Z" fill="#614BFF"/>
<path d="M11.245 29.1562L1.99683 41.028L12.0345 31.6593C11.6783 30.8578 11.4134 30.0181 11.245 29.1562Z" fill="#614BFF"/>
<path d="M43.2976 20.8407C47.0884 19.0832 48.0827 15.6308 48.0827 12.304C48.0827 3.89306 40.9982 0 32.2979 0H10.05V29.0348L11.8114 26.7736L12.2345 28.9537C12.3885 29.7399 12.6301 30.506 12.9549 31.2373L13.0987 31.5618C13.2002 31.791 13.3191 32.0119 13.4543 32.2226L14.016 33.0978C14.2063 33.3639 14.4072 33.6205 14.6188 33.8677C14.6093 33.8411 14.5991 33.8148 14.5895 33.7879C14.0239 32.1368 13.8836 30.2985 14.1823 28.4672L14.1938 28.3967L14.225 28.2048C14.247 28.0765 14.2733 27.9492 14.3041 27.8231L14.4687 27.1703C14.7089 26.3091 15.038 25.4757 15.4505 24.6839C16.1568 23.335 17.0839 22.1164 18.1926 21.0798C19.7999 19.5677 21.723 18.4833 23.7702 17.932L24.1847 17.8285C24.5162 17.7527 24.8533 17.7048 25.1898 17.6573C25.519 17.6104 25.8483 17.5628 26.1815 17.5382C26.3981 17.5223 26.6167 17.5203 26.834 17.5203C27.9048 17.5169 28.9702 17.6752 29.9946 17.9901L30.3812 18.1192C30.7646 18.2561 31.1395 18.4167 31.5035 18.6C31.5302 18.612 31.5522 18.6233 31.5693 18.6333L31.5759 18.6366C31.7869 18.7431 31.9519 18.9242 32.0395 19.1454C32.7454 20.8414 32.9818 22.7621 32.723 24.6988C32.7095 24.8066 32.6943 24.9163 32.6772 25.0241L32.6588 25.1395L32.6848 25.1521L32.6028 25.4909L32.5337 25.9233H32.5459C35.5909 25.9233 37.1446 27.7436 37.1446 30.1289C37.1446 32.5771 35.6532 34.2717 32.5459 34.2717H26.2173C25.7906 34.5226 25.3503 34.7491 24.8984 34.9501C24.1323 35.2891 23.3346 35.5499 22.5171 35.7286L22.55 35.8057L21.6282 35.8978L21.2775 35.9613L21.267 35.9341L21.1626 35.9447C20.7801 35.9833 20.3929 36.0029 20.013 36.0029C18.8306 36.0074 17.6558 35.8126 16.5369 35.4266C16.3588 35.3644 16.184 35.2966 16.0118 35.2271L16.4069 35.5596L16.85 35.8423L16.8609 35.8499C17.5608 36.3103 18.3123 36.685 19.0997 36.9663L20.0314 37.2988L20.0521 37.2736L20.6332 37.3846C21.2869 37.5091 21.9507 37.5717 22.6159 37.5715C22.7696 37.5715 22.926 37.5682 23.0801 37.5615L26.0373 37.4342L23.7761 39.3596L18.3882 43.9417H32.482C40.4366 43.8788 49.3232 40.9285 49.3232 31.0723C49.3249 27.1177 47.337 23.0378 43.2976 20.8407ZM31.9871 16.7607H22.1681V10.0434H32.1109C34.5347 10.0434 35.9021 11.5498 35.9021 13.4955C35.9021 15.4412 34.5351 16.7607 31.9871 16.7607Z" fill="#614BFF"/>
<path d="M16.2951 36.6887L16.2891 36.6844L7.8374 46.7604L18.7627 37.9224C17.8942 37.6123 17.0658 37.1981 16.2951 36.6887Z" fill="#614BFF"/>
</g>
<path d="M65.4656 31.6514V10.6594H73.4137C75.3679 10.6594 76.8147 11.124 77.7542 12.0531C78.6937 12.9823 79.1635 14.3382 79.1635 16.1207C79.1635 16.9551 79.0319 17.6946 78.7689 18.3394C78.5246 18.9651 78.1864 19.4866 77.7542 19.9038C77.322 20.302 76.8147 20.577 76.2322 20.7287C76.6644 20.8425 77.0872 21.0226 77.5005 21.2691C77.9327 21.4967 78.3273 21.8191 78.6843 22.2363C79.0413 22.6534 79.3232 23.1654 79.5299 23.7723C79.7366 24.3601 79.8399 25.0523 79.8399 25.8487C79.8399 27.2899 79.5956 28.4371 79.1071 29.2905C78.6373 30.1248 77.9421 30.7317 77.0214 31.1109C76.1195 31.4712 75.0297 31.6514 73.7519 31.6514H65.4656ZM68.9323 28.494H73.6392C74.2217 28.494 74.729 28.3897 75.1612 28.1811C75.5934 27.9726 75.9222 27.6407 76.1477 27.1856C76.3919 26.7115 76.5141 26.0668 76.5141 25.2514C76.5141 24.6066 76.3919 24.0662 76.1477 23.63C75.9034 23.1939 75.5652 22.862 75.133 22.6345C74.7008 22.388 74.2029 22.2647 73.6392 22.2647H68.9323V28.494ZM68.9323 19.534H73.4701C74.1653 19.534 74.729 19.278 75.1612 18.766C75.5934 18.2351 75.8188 17.5429 75.8376 16.6896C75.8564 15.6087 75.6215 14.8597 75.133 14.4425C74.6633 14.0253 74.0808 13.8167 73.3855 13.8167H68.9323V19.534Z" fill="#EBEBED"/>
<path d="M88.9194 31.7936C87.2847 31.7936 85.9788 31.566 85.0017 31.1109C84.0434 30.6558 83.3482 29.8688 82.916 28.75C82.4838 27.6123 82.2678 26.0383 82.2678 24.0283C82.2678 21.9803 82.4745 20.3968 82.8878 19.278C83.3012 18.1403 83.987 17.3438 84.9453 16.8887C85.9036 16.4336 87.2001 16.206 88.8349 16.206C90.2817 16.206 91.4373 16.3577 92.3016 16.6611C93.1847 16.9456 93.8236 17.4671 94.2182 18.2256C94.6316 18.9651 94.8382 20.0176 94.8382 21.3829C94.8382 22.35 94.6503 23.1275 94.2745 23.7154C93.8987 24.2843 93.3538 24.692 92.6398 24.9385C91.9446 25.185 91.1178 25.3083 90.1595 25.3083H85.7345C85.7721 26.2564 85.8942 27.0149 86.1009 27.5838C86.3264 28.1337 86.721 28.532 87.2847 28.7785C87.8672 29.025 88.7127 29.1483 89.8213 29.1483H94.3873V31.2247C93.6169 31.3764 92.7995 31.5091 91.9352 31.6229C91.0896 31.7367 90.0844 31.7936 88.9194 31.7936ZM85.7063 23.1749H89.8213C90.479 23.1749 90.9581 23.0517 91.2588 22.8051C91.5782 22.5397 91.7379 22.0656 91.7379 21.3829C91.7379 20.7192 91.6439 20.1977 91.4561 19.8185C91.2682 19.4392 90.9581 19.1737 90.5259 19.022C90.0938 18.8514 89.5301 18.766 88.8349 18.766C88.0457 18.766 87.4256 18.8893 86.9746 19.1358C86.5237 19.3823 86.1949 19.828 85.9882 20.4727C85.8003 21.0985 85.7063 21.9992 85.7063 23.1749Z" fill="#EBEBED"/>
<path d="M103.436 31.6514C102.347 31.6514 101.454 31.4902 100.759 31.1678C100.064 30.8265 99.5563 30.2671 99.2369 29.4896C98.9362 28.7121 98.7953 27.6881 98.8141 26.4176L98.9268 19.2496H96.5593V16.974L99.0396 16.4051L99.5469 12.1385H102.281V16.4051H106.114V19.2496H102.281V26.3891C102.281 26.8822 102.328 27.2899 102.422 27.6123C102.516 27.9157 102.647 28.1622 102.816 28.3518C103.004 28.5225 103.202 28.6457 103.408 28.7216C103.615 28.7974 103.831 28.8448 104.056 28.8638L105.945 29.0629V31.6514H103.436Z" fill="#EBEBED"/>
<path d="M108.675 38.3927V16.4051H111.578L112.17 17.9127C112.527 17.6283 112.94 17.3533 113.41 17.0878C113.88 16.8223 114.387 16.6137 114.932 16.462C115.477 16.2914 116.041 16.206 116.623 16.206C117.581 16.206 118.399 16.3957 119.075 16.7749C119.77 17.1542 120.334 17.6946 120.766 18.3963C121.198 19.0789 121.508 19.9038 121.696 20.8709C121.903 21.8191 122.006 22.8715 122.006 24.0283C122.006 25.697 121.828 27.1192 121.471 28.2949C121.133 29.4517 120.569 30.3334 119.78 30.9403C119.009 31.5471 117.957 31.8505 116.623 31.8505C115.871 31.8505 115.101 31.7462 114.312 31.5376C113.541 31.329 112.827 31.054 112.17 30.7127V38.3927H108.675ZM115.524 28.9491C116.069 28.9491 116.567 28.8069 117.018 28.5225C117.469 28.2191 117.826 27.7166 118.089 27.0149C118.37 26.3133 118.511 25.3177 118.511 24.0283C118.511 22.7957 118.38 21.8096 118.117 21.07C117.854 20.3305 117.497 19.809 117.046 19.5056C116.614 19.2022 116.116 19.0505 115.552 19.0505C114.857 19.0505 114.227 19.1643 113.664 19.3918C113.1 19.6004 112.602 19.8185 112.17 20.046V28.0105C112.658 28.2949 113.194 28.5225 113.776 28.6931C114.359 28.8638 114.941 28.9491 115.524 28.9491Z" fill="#EBEBED"/>
<path d="M125.107 31.6514V16.4051H127.813L128.602 18.8514C129.203 18.1118 129.87 17.486 130.603 16.974C131.336 16.462 132.209 16.206 133.224 16.206C133.431 16.206 133.647 16.225 133.872 16.2629C134.098 16.2819 134.305 16.3198 134.492 16.3767V19.9607C134.229 19.9228 133.948 19.8943 133.647 19.8754C133.346 19.8564 133.055 19.8469 132.773 19.8469C132.191 19.8469 131.655 19.9133 131.167 20.046C130.697 20.1788 130.255 20.3874 129.842 20.6718C129.429 20.9373 129.015 21.2786 128.602 21.6958V31.6514H125.107Z" fill="#EBEBED"/>
<path d="M143.228 31.7936C142.044 31.7936 141.02 31.6703 140.156 31.4238C139.292 31.1773 138.587 30.7601 138.042 30.1723C137.497 29.5844 137.093 28.788 136.83 27.7829C136.567 26.7779 136.436 25.5168 136.436 23.9998C136.436 22.4259 136.567 21.1364 136.83 20.1314C137.093 19.1074 137.497 18.3109 138.042 17.742C138.606 17.1542 139.32 16.756 140.184 16.5474C141.049 16.3198 142.063 16.206 143.228 16.206C144.431 16.206 145.464 16.3293 146.329 16.5758C147.193 16.8034 147.898 17.2016 148.442 17.7705C148.987 18.3394 149.391 19.1358 149.654 20.1598C149.917 21.1648 150.049 22.4448 150.049 23.9998C150.049 25.5358 149.917 26.8158 149.654 27.8398C149.41 28.8448 149.016 29.6413 148.471 30.2291C147.926 30.798 147.221 31.2057 146.357 31.4523C145.492 31.6798 144.45 31.7936 143.228 31.7936ZM143.228 28.9776C143.811 28.9776 144.309 28.9302 144.722 28.8354C145.135 28.7216 145.474 28.5035 145.737 28.1811C146.019 27.8398 146.225 27.3373 146.357 26.6736C146.488 25.9909 146.554 25.0902 146.554 23.9714C146.554 22.8715 146.488 21.9897 146.357 21.326C146.225 20.6623 146.019 20.1693 145.737 19.8469C145.474 19.5056 145.135 19.2875 144.722 19.1927C144.309 19.0789 143.811 19.022 143.228 19.022C142.665 19.022 142.176 19.0789 141.763 19.1927C141.349 19.2875 141.011 19.5056 140.748 19.8469C140.485 20.1693 140.278 20.6623 140.128 21.326C139.996 21.9897 139.931 22.8715 139.931 23.9714C139.931 25.0902 139.996 25.9909 140.128 26.6736C140.278 27.3373 140.485 27.8398 140.748 28.1811C141.011 28.5035 141.349 28.7216 141.763 28.8354C142.176 28.9302 142.665 28.9776 143.228 28.9776Z" fill="#EBEBED"/>
<defs>
<clipPath id="clip0_38_5418">
<rect width="49.3236" height="48" fill="white"/>
</clipPath>
</defs>
</svg>
